<svg width="21" height="21" viewBox="0 0 21 21" fill="none" xmlns="http://www.w3.org/2000/svg">
<path d="M5.29714 17.4025L3.83464 7.16669H17.168L15.7055 17.4025C15.6487 17.7997 15.4506 18.163 15.1475 18.4259C14.8444 18.6887 14.4567 18.8334 14.0555 18.8334H6.94714C6.54595 18.8334 6.15822 18.6887 5.85512 18.4259C5.55202 18.163 5.3539 17.7997 5.29714 17.4025ZM18.0013 3.83335H13.8346V3.00002C13.8346 2.77901 13.7468 2.56704 13.5906 2.41076C13.4343 2.25448 13.2223 2.16669 13.0013 2.16669H8.0013C7.78029 2.16669 7.56833 2.25448 7.41205 2.41076C7.25577 2.56704 7.16797 2.77901 7.16797 3.00002V3.83335H3.0013C2.78029 3.83335 2.56833 3.92115 2.41205 4.07743C2.25577 4.23371 2.16797 4.44567 2.16797 4.66669C2.16797 4.8877 2.25577 5.09966 2.41205 5.25594C2.56833 5.41222 2.78029 5.50002 3.0013 5.50002H18.0013C18.2223 5.50002 18.4343 5.41222 18.5906 5.25594C18.7468 5.09966 18.8346 4.8877 18.8346 4.66669C18.8346 4.44567 18.7468 4.23371 18.5906 4.07743C18.4343 3.92115 18.2223 3.83335 18.0013 3.83335Z" fill="black"/>
</svg>
