<svg width="22" height="22" viewBox="0 0 22 22" fill="none" xmlns="http://www.w3.org/2000/svg">
<path d="M11 19.9375C6.06375 19.9375 2.0625 15.9362 2.0625 11C2.0625 6.06375 6.06375 2.0625 11 2.0625C15.9362 2.0625 19.9375 6.06375 19.9375 11C19.9375 15.9362 15.9362 19.9375 11 19.9375ZM15.0982 8.39369C15.2659 8.22594 15.2659 7.953 15.0982 7.78525L14.1852 6.87294C14.0174 6.70519 13.7445 6.70519 13.5767 6.87294L10.9911 9.45863L8.40538 6.87294C8.23762 6.70519 7.96469 6.70519 7.79694 6.87294L6.88394 7.78525C6.71619 7.953 6.71619 8.22594 6.88394 8.39369L9.47031 10.9801L6.88394 13.5651C6.71619 13.7328 6.71619 14.0057 6.88394 14.1735L7.79694 15.0865C7.96469 15.2543 8.23762 15.2543 8.40538 15.0865L10.9911 12.5001L13.5767 15.0865C13.7445 15.2543 14.0174 15.2543 14.1852 15.0865L15.0982 14.1735C15.2659 14.0057 15.2659 13.7328 15.0982 13.5651L12.5118 10.9801L15.0982 8.39369Z" fill="white" stroke="white"/>
</svg>
