<svg width="30" height="29" viewBox="0 0 30 29" fill="none" xmlns="http://www.w3.org/2000/svg">
<path fill-rule="evenodd" clip-rule="evenodd" d="M5.31504 16.9167H5C3.61929 16.9167 2.5 15.8347 2.5 14.5C2.5 13.1653 3.61929 12.0834 5 12.0834H5.31504C5.55121 11.1964 5.91432 10.3587 6.38455 9.58943L6.16117 9.3735C5.18485 8.42973 5.18485 6.89958 6.16117 5.95581C7.13748 5.01205 8.72039 5.01205 9.6967 5.95581L9.92008 6.17175C10.7159 5.7172 11.5824 5.36619 12.5 5.1379V4.83335C12.5 3.49867 13.6193 2.41669 15 2.41669C16.3807 2.41669 17.5 3.49867 17.5 4.83335V5.1379C18.4176 5.36619 19.2841 5.7172 20.0799 6.17175L20.3033 5.95581C21.2796 5.01205 22.8625 5.01205 23.8388 5.95581C24.8151 6.89958 24.8151 8.42973 23.8388 9.3735L23.6155 9.58943C24.0857 10.3587 24.4488 11.1964 24.685 12.0834H25C26.3807 12.0834 27.5 13.1653 27.5 14.5C27.5 15.8347 26.3807 16.9167 25 16.9167H24.685C24.4488 17.8037 24.0857 18.6414 23.6155 19.4106L23.8388 19.6265C24.8151 20.5703 24.8151 22.1005 23.8388 23.0442C22.8625 23.988 21.2796 23.988 20.3033 23.0442L20.0799 22.8283C19.2841 23.2828 18.4176 23.6339 17.5 23.8621V24.1667C17.5 25.5014 16.3807 26.5834 15 26.5834C13.6193 26.5834 12.5 25.5014 12.5 24.1667V23.8621C11.5824 23.6339 10.7159 23.2828 9.92008 22.8283L9.6967 23.0442C8.72039 23.988 7.13748 23.988 6.16117 23.0442C5.18485 22.1005 5.18485 20.5703 6.16117 19.6265L6.38455 19.4106C5.91432 18.6414 5.55121 17.8037 5.31504 16.9167ZM11.25 12.0834L8.75 14.5L13.75 19.3334L21.25 12.0834L18.75 9.66669L13.75 14.5L11.25 12.0834Z" fill="white"/>
</svg>
