<svg width="18" height="17" viewBox="0 0 18 17" fill="none" xmlns="http://www.w3.org/2000/svg">
<path d="M12.3517 8.15625C12.3517 9.91279 10.7879 11.3368 8.85889 11.3368C6.92984 11.3368 5.36605 9.91279 5.36605 8.15625C5.36605 6.39968 6.92984 4.97569 8.85889 4.97569C10.7879 4.97569 12.3517 6.39968 12.3517 8.15625ZM12.3517 8.15625V9.34896C12.3517 10.4468 13.3291 11.3368 14.5348 11.3368C15.7404 11.3368 16.7178 10.4468 16.7178 9.34896V8.15625C16.7178 4.20396 13.1993 1 8.85889 1C4.51855 1 1 4.20396 1 8.15625C1 12.1086 4.51855 15.3125 8.85889 15.3125H12.3517" stroke="black" stroke-width="1.77778" stroke-linecap="round" stroke-linejoin="round"/>
</svg>
