<svg width="19" height="17" viewBox="0 0 19 17" fill="none" xmlns="http://www.w3.org/2000/svg">
<path d="M17.9757 4.62012H12.8802V3.38052C12.8802 1.5134 11.3667 0 9.49942 0C7.63299 0 6.11944 1.51344 6.11944 3.38052V4.62012H1.02433C0.458993 4.62012 0 5.07907 0 5.64437V15.3119C0 15.8771 0.458993 16.3361 1.02433 16.3361H17.9757C18.5411 16.3361 19 15.8771 19 15.3119V5.64437C19 5.07907 18.5411 4.62012 17.9757 4.62012ZM16.5719 9.21185C16.5719 9.474 16.3591 9.68677 16.0969 9.68677H11.1694C10.9071 9.68677 10.6944 9.47404 10.6944 9.21185C10.6944 8.94962 10.907 8.7367 11.1694 8.7367H16.0969C16.3591 8.7367 16.5719 8.94959 16.5719 9.21185ZM14.0918 6.20348C14.3539 6.20348 14.5667 6.4162 14.5667 6.67839C14.5667 6.94058 14.3539 7.15346 14.0918 7.15346H11.1694C10.9071 7.15346 10.6944 6.94062 10.6944 6.67839C10.6944 6.41624 10.9071 6.20348 11.1694 6.20348H14.0918ZM9.49939 1.47632C10.2459 1.47632 10.8508 2.0812 10.8508 2.82772C10.8508 3.57367 10.2459 4.17851 9.49939 4.17851C8.75351 4.17851 8.1486 3.57363 8.1486 2.82772C8.1486 2.08116 8.75355 1.47632 9.49939 1.47632ZM9.21981 13.5444C9.21981 14.2833 8.61805 14.8851 7.87918 14.8851H2.77842C2.03924 14.8851 1.43748 14.2833 1.43748 13.5444V7.41184C1.43748 6.67293 2.03924 6.07117 2.77842 6.07117H7.87914C8.61801 6.07117 9.21977 6.67293 9.21977 7.41184L9.21981 13.5444ZM17.2584 14.7535H14.3362C14.0737 14.7535 13.8611 14.5407 13.8611 14.2785C13.8611 14.0162 14.0737 13.8034 14.3362 13.8034H17.2584C17.5206 13.8034 17.7334 14.0162 17.7334 14.2785C17.7333 14.5407 17.5205 14.7535 17.2584 14.7535ZM17.2584 12.2201H11.1694C10.9071 12.2201 10.6944 12.0072 10.6944 11.745C10.6944 11.4829 10.907 11.2701 11.1694 11.2701H17.2584C17.5205 11.2701 17.7333 11.4829 17.7333 11.745C17.7333 12.0072 17.5205 12.2201 17.2584 12.2201Z" fill="black"/>
<path d="M7.87868 6.70441H2.77795C2.38769 6.70441 2.07031 7.02179 2.07031 7.41182V13.5444C2.07031 13.9347 2.38769 14.2518 2.77795 14.2518H7.87868C8.26871 14.2518 8.58601 13.9347 8.58601 13.5444V7.41182C8.58601 7.02179 8.26871 6.70441 7.87868 6.70441ZM5.32795 7.27594C6.23013 7.27594 6.96312 8.23954 6.96312 9.42771C6.96312 10.6157 6.23013 11.5806 5.32795 11.5806C4.42558 11.5806 3.69252 10.6157 3.69252 9.42771C3.69256 8.2395 4.42558 7.27594 5.32795 7.27594ZM7.69788 13.527C7.6478 13.5868 7.57492 13.6208 7.49746 13.6208H3.15891C3.08153 13.6208 3.00791 13.5864 2.95853 13.527C2.90826 13.4677 2.88811 13.389 2.90165 13.313C3.01034 12.7025 3.34056 12.1823 3.80094 11.8206C3.81313 11.8114 3.82382 11.7982 3.83732 11.7871C4.25105 12.1711 4.76692 12.4032 5.32799 12.4032C5.88821 12.4032 6.40409 12.1712 6.81974 11.7871C6.83089 11.7982 6.84262 11.8114 6.85616 11.8206C7.3145 12.1822 7.64411 12.7025 7.75418 13.313C7.76787 13.3896 7.74745 13.4677 7.69788 13.527Z" fill="black"/>
</svg>
